<svg t="1685631365133" class="icon" viewBox="0 0 1024 1024" version="1.1" xmlns="http://www.w3.org/2000/svg" p-id="1814" width="200" height="200"><path d="M0 0m136.533333 0l750.933334 0q136.533333 0 136.533333 136.533333l0 750.933334q0 136.533333-136.533333 136.533333l-750.933334 0q-136.533333 0-136.533333-136.533333l0-750.933334q0-136.533333 136.533333-136.533333Z" fill="#FFC738" p-id="1815"></path><path d="M797.709653 510.948693L557.725013 764.586667h-163.84l-101.512533-115.165867a27.306667 27.306667 0 0 1 0-38.611627l302.598827-302.598826a27.306667 27.306667 0 0 1 38.611626 0l164.12672 164.113066a27.306667 27.306667 0 0 1 0 38.62528z" fill="#EAB83A" p-id="1816"></path><path d="M709.167787 754.333013l-117.118294-0.955733 240.134827-235.342507a36.00384 36.00384 0 0 0 0-50.885973L605.033813 240.298667a36.058453 36.058453 0 0 0-50.926933 0l-355.45088 354.986666a36.017493 36.017493 0 0 0 0 50.885974l109.909333 109.745493-104.434346-1.59744A26.637653 26.637653 0 0 0 177.493333 780.970667v-2.00704A26.651307 26.651307 0 0 0 204.14464 805.546667h505.0368a26.651307 26.651307 0 0 0 26.66496-26.637654v2.061654a26.651307 26.651307 0 0 0-26.66496-26.637654z m-332.895574 24.890027l-40.250026-40.195413-115.152214-115.070294a4.62848 4.62848 0 0 1 0-6.539946l355.423574-354.986667a4.642133 4.642133 0 0 1 6.5536 0L809.984 489.335467a4.614827 4.614827 0 0 1 0 6.51264L566.613333 739.027627l-40.250026 40.195413H376.272213z m204.663467-478.508373a17.380693 17.380693 0 0 0-19.278507 15.018666L529.03936 574.395733l-255.87712 28.822187a17.24416 17.24416 0 0 0 1.92512 34.379093 16.452267 16.452267 0 0 0 1.952427-0.109226l269.380266-30.35136a17.24416 17.24416 0 0 0 15.19616-15.018667l34.297174-272.1792a17.257813 17.257813 0 0 0-15.018667-19.264853zM791.893333 955.733333v-27.306666h109.226667v-13.653334h-13.653333v-13.653333h-13.653334v-13.653333h-13.653333v-13.653334h-13.653333v-13.653333h-13.653334v-13.653333h-13.653333v-13.653334h-13.653333v-13.653333h-13.653334v-13.653333h13.653334v-13.653334h13.653333v13.653334h13.653333v13.653333h13.653334v13.653333h13.653333v13.653334h13.653333v13.653333h13.653334v13.653333h13.653333v13.653334h13.653333v13.653333h13.653334v-109.226667h27.306666v163.84H791.893333z m70.314667-68.266666zM860.16 887.466667z" fill="#30384F" p-id="1817"></path></svg>